<?xml version="1.0" standalone="no"?>
<!DOCTYPE svg PUBLIC "-//W3C//DTD SVG 20010904//EN"
 "http://www.w3.org/TR/2001/REC-SVG-20010904/DTD/svg10.dtd">
<svg version="1.0" xmlns="http://www.w3.org/2000/svg"
 width="270.000000pt" height="249.000000pt" viewBox="0 0 270.000000 249.000000"
 preserveAspectRatio="xMidYMid meet">
<g transform="translate(0.000000,249.000000) scale(0.100000,-0.100000)"
fill="#000000" stroke="none">
<path d="M717 2483 c-3 -5 -10 -147 -17 -318 -6 -170 -12 -333 -13 -362 l-2
-52 -40 -6 c-61 -9 -472 -55 -545 -62 -36 -3 -73 -10 -82 -15 -17 -8 -18 -56
-18 -799 0 -526 3 -797 10 -810 11 -19 36 -19 1313 -19 1000 0 1306 3 1315 12
9 9 12 190 12 754 l0 742 -27 10 c-16 6 -102 25 -193 42 -91 17 -191 36 -222
42 l-57 12 -5 70 c-3 39 -8 166 -12 281 -3 120 -10 215 -16 223 -6 7 -34 12
-68 12 l-58 0 -7 -217 c-4 -120 -10 -247 -15 -283 -7 -55 -8 -49 -4 40 14 370
15 465 4 454 -16 -16 -18 -32 -25 -295 l-8 -245 -195 38 c-107 21 -197 39
-199 42 -2 2 -9 134 -14 292 -6 159 -12 295 -14 302 -3 8 -26 12 -69 12 l-64
0 -6 -237 c-3 -131 -10 -265 -15 -298 -9 -56 -9 -54 -6 30 15 313 17 505 7
505 -17 0 -20 -28 -27 -235 -7 -227 -15 -336 -25 -330 -4 2 -95 -6 -202 -18
l-196 -22 -6 145 c-3 80 -8 226 -11 325 -3 99 -8 195 -11 213 l-5 32 -63 0
-63 0 -13 -370 c-7 -203 -16 -370 -19 -370 -3 0 -3 69 0 152 17 411 20 588 10
588 -5 0 -12 -3 -14 -7z m543 -1563 l0 -810 -583 0 -584 0 -6 542 c-4 298 -7
630 -7 739 l0 198 33 5 c17 3 151 19 297 36 588 65 840 95 848 99 1 0 2 -363
2 -809z m140 581 l1 -216 142 -172 c79 -95 146 -175 149 -178 6 -6 324 -45
371 -45 l27 0 0 119 c0 91 -3 121 -14 130 -18 15 -30 64 -21 91 9 28 51 37 75
15 27 -25 27 -86 0 -110 -19 -17 -21 -30 -19 -149 l1 -131 -38 3 c-163 14
-391 45 -401 55 -6 7 -77 91 -157 187 l-146 175 0 227 c0 198 2 227 15 222 13
-5 15 -40 15 -223z m150 23 l0 -165 67 -92 c36 -51 70 -96 74 -101 6 -6 221
-44 262 -46 4 0 7 79 7 175 0 96 2 175 5 175 9 0 569 -111 588 -116 9 -3 17
-11 17 -18 0 -10 -29 -7 -122 11 -317 62 -386 75 -425 80 l-43 6 0 -172 c0
-146 -2 -171 -15 -171 -15 0 -187 24 -252 35 -27 5 -44 22 -107 110 l-75 104
-1 173 c0 95 -1 177 0 181 0 5 5 5 10 2 6 -4 10 -72 10 -171z m150 1 c0 -74 4
-136 8 -139 5 -3 32 -8 60 -12 l52 -7 0 138 c0 92 3 136 11 133 9 -3 16 -294
6 -304 -2 -2 -30 1 -63 7 -103 18 -94 0 -94 175 0 101 3 153 10 149 6 -4 10
-62 10 -140z m590 -247 c6 -7 16 -21 23 -30 8 -12 43 -22 107 -33 143 -23 150
-25 150 -41 0 -10 -6 -14 -17 -10 -10 2 -67 12 -126 22 l-108 17 -15 -21 c-19
-27 -38 -28 -64 -2 -22 22 -27 79 -8 98 16 16 44 15 58 0z m17 -188 c11 -22
23 -26 130 -42 65 -9 121 -17 126 -18 4 0 7 -6 7 -14 0 -11 -9 -13 -32 -10
-218 33 -211 32 -235 7 -27 -28 -37 -29 -63 -3 -23 23 -27 79 -8 98 20 20 61
10 75 -18z m-864 -121 c83 -100 100 -116 121 -112 33 7 66 -28 66 -68 0 -45
-17 -69 -47 -69 -40 0 -63 27 -63 72 0 35 -11 52 -100 158 -63 74 -100 127
-100 142 0 27 -7 34 123 -123z m845 -25 c12 -8 22 -22 22 -30 0 -8 1 -14 3
-14 1 0 57 -7 122 -15 66 -8 123 -15 128 -15 4 0 7 -7 7 -16 0 -13 -7 -15 -37
-10 -21 3 -78 11 -126 17 -85 11 -89 10 -103 -10 -19 -26 -60 -27 -74 -2 -15
29 -12 72 7 93 20 22 23 22 51 2z m-798 -266 c33 4 70 -36 70 -75 0 -24 -40
-73 -60 -73 -25 0 -60 49 -60 85 0 30 -11 50 -60 109 -34 42 -60 82 -60 95 0
18 15 5 71 -60 61 -73 74 -84 99 -81z m435 94 c5 -12 17 -24 25 -26 8 -3 128
-15 267 -27 l252 -22 20 24 c16 20 23 22 38 13 27 -17 39 -58 25 -89 -15 -32
-45 -32 -69 0 -17 23 -27 25 -278 48 l-260 25 -18 -24 c-10 -13 -27 -24 -36
-24 -44 0 -71 78 -41 115 19 23 63 15 75 -13z m-107 -156 c20 -26 44 -31 192
-41 47 -3 146 -9 220 -14 74 -6 181 -13 238 -17 80 -5 102 -10 102 -22 0 -12
-12 -13 -67 -8 -38 3 -142 11 -233 16 -91 6 -225 15 -299 20 l-134 9 -19 -24
c-23 -29 -44 -32 -70 -8 -21 19 -25 82 -6 101 19 19 55 14 76 -12z m-410 -122
c29 10 72 -33 72 -71 0 -54 -48 -91 -86 -65 -21 14 -36 54 -31 82 5 21 0 33
-19 50 -13 13 -24 35 -24 49 0 25 1 25 33 -13 26 -31 37 -37 55 -32z m264 -36
l29 -31 327 -14 c180 -7 355 -16 390 -19 l62 -6 0 -139 c0 -178 -18 -187 -22
-11 l-3 127 -265 11 c-146 7 -317 13 -381 15 l-116 3 -25 -29 c-23 -27 -28
-28 -52 -17 -25 11 -46 47 -46 78 0 18 44 64 61 64 6 0 24 -14 41 -32z m-72
-185 l21 -27 317 -6 c174 -3 319 -2 320 2 8 19 35 38 52 38 48 0 64 -97 20
-120 -26 -14 -28 -13 -56 18 l-26 27 -314 5 -314 5 -20 -27 c-11 -16 -29 -28
-40 -28 -30 0 -60 36 -60 72 0 65 61 90 100 41z"/>
</g>
</svg>
